HIERARCHY
ROOT Hips
{
	OFFSET 0.00000 0.00000 0.00000
	CHANNELS 6 Xposition Yposition Zposition Zrotation Yrotation Xrotation 
	JOINT LHipJoint
	{
		OFFSET 0 0 0
		CHANNELS 3 Zrotation Yrotation Xrotation
		JOINT LeftHip
		{
			OFFSET 1.29432 -1.88279 0.59910
			CHANNELS 3 Zrotation Yrotation Xrotation
			JOINT LeftKnee
			{
				OFFSET 2.63039 -7.22694 0.00000
				CHANNELS 3 Zrotation Yrotation Xrotation
				JOINT LeftAnkle
				{
					OFFSET 2.70674 -7.43672 0.00000
					CHANNELS 3 Zrotation Yrotation Xrotation
					JOINT LeftToe
					{
						OFFSET 0.15066 -0.41394 2.09027
						CHANNELS 3 Zrotation Yrotation Xrotation
						End Site
						{
							OFFSET 0.00000 -0.00000 1.07518
						}
					}
				}
			}
		}
	}
	JOINT RHipJoint
	{
		OFFSET 0 0 0
		CHANNELS 3 Zrotation Yrotation Xrotation
		JOINT RightHip
		{
			OFFSET -1.37068 -1.88279 0.59910
			CHANNELS 3 Zrotation Yrotation Xrotation
			JOINT RightKnee
			{
				OFFSET -2.57023 -7.06166 0.00000
				CHANNELS 3 Zrotation Yrotation Xrotation
				JOINT RightAnkle
				{
					OFFSET -2.76461 -7.59570 0.00000
					CHANNELS 3 Zrotation Yrotation Xrotation
					JOINT RightToe
					{
						OFFSET -0.24175 -0.64785 2.19719
						CHANNELS 3 Zrotation Yrotation Xrotation
						End Site
						{
							OFFSET -0.00000 -0.00000 1.14803
						}
					}
				}
			}
		}
	}
	JOINT lowerback
	{
		OFFSET 0 0 0
		CHANNELS 3 Zrotation Yrotation Xrotation
		JOINT Chest
		{
			OFFSET -0.03138 2.03983 -0.23106
			CHANNELS 3 Zrotation Yrotation Xrotation
			JOINT Chest2
			{
				OFFSET -0.00325 2.06238 -0.06878
				CHANNELS 3 Zrotation Yrotation Xrotation
				JOINT lowerneck
				{
					OFFSET 0 0 0
					CHANNELS 3 Zrotation Yrotation Xrotation
					JOINT Neck
					{
						OFFSET -0.00002 1.75318 0.18090
						CHANNELS 3 Zrotation Yrotation Xrotation
						JOINT Head
						{
							OFFSET 0.08806 1.75856 -0.25387
							CHANNELS 3 Zrotation Yrotation Xrotation
							End Site
							{
								OFFSET 0.02554 1.78597 -0.10684
							}
						}
					}
				}
				JOINT LeftCollar
				{
					OFFSET 0 0 0
					CHANNELS 3 Zrotation Yrotation Xrotation
					JOINT LeftShoulder
					{
						OFFSET 3.09657 1.33597 -0.04414
CHANNELS 3 Zrotation Xrotation Yrotation
						JOINT LeftElbow
						{
OFFSET 0 -5.342980 -0.000000
CHANNELS 3 Zrotation Xrotation Yrotation
							JOINT LeftWrist
							{
OFFSET 0 -3.672620 -0.000000
CHANNELS 3 Zrotation Xrotation Yrotation
								JOINT lhand
								{
									OFFSET 0 0 0
CHANNELS 3 Zrotation Xrotation Yrotation
									JOINT LFingers
									{
OFFSET 0 -0.599300 -0.000000
CHANNELS 3 Zrotation Xrotation Yrotation
										End Site
										{
OFFSET 0 -0.483170 -0.000000
										}
									}
								}
								JOINT LThumb
								{
OFFSET 0 0.000000 0.000000
CHANNELS 3 Zrotation Xrotation Yrotation
									End Site
									{
OFFSET 0 -0.490550 0.490550
									}
								}
							}
						}
					}
				}
				JOINT RightCollar
				{
					OFFSET 0 0 0
					CHANNELS 3 Zrotation Yrotation Xrotation
					JOINT RightShoulder
					{
						OFFSET -3.16460 1.32273 -0.23382
CHANNELS 3 Zrotation Xrotation Yrotation
						JOINT RightElbow
						{
OFFSET 0 -5.549670 0.033480
CHANNELS 3 Zrotation Xrotation Yrotation
							JOINT RightWrist
							{
OFFSET 0 -3.694010 0.000000
CHANNELS 3 Zrotation Xrotation Yrotation
								JOINT rhand
								{
									OFFSET 0 0 0
CHANNELS 3 Zrotation Xrotation Yrotation
									JOINT RFingers
									{
OFFSET 0 -0.638110 0.000000
CHANNELS 3 Zrotation Xrotation Yrotation
										End Site
										{
OFFSET 0 -0.514460 0.000000
										}
									}
								}
								JOINT RThumb
								{
OFFSET 0 0.000000 0.000000
CHANNELS 3 Zrotation Xrotation Yrotation
									End Site
									{
OFFSET 0 -0.522320 0.522320
									}
								}
							}
						}
					}
				}
			}
		}
	}
}
MOTION
Frames: 7
Frame Time: 0.008333333333333333
18.035300 12.845100 9.887400 17.940700 -81.794700 -55.726600 0.000000 0.000000 0.000000 -7.802800 -11.860600 -19.407700 2.267600 9.402600 27.063100 1.932500 14.717900 25.502400 0.366300 3.888000 10.761700 0.000000 0.000000 0.000000 -1.556700 14.788000 -21.247800 -4.118300 -12.316200 36.859900 2.787300 -28.067000 -8.815800 -6.404100 -14.808800 46.582600 1.098800 1.547300 21.281800 -0.410000 0.943300 15.248800 -1.259700 0.031000 4.849200 11.662300 10.138100 1.654600 -10.055600 14.237500 9.118500 -4.334800 7.099400 4.010600 0.000000 0.000000 0.000000 6.192900 -14.042700 -54.815600 52.201500 -53.845700 27.942200 -1.034800 16.408600 -33.813500 0.000000 0.000000 0.000000 -7.125000 0.000000 0.000000 -38.256700 59.468400 14.831800 0.000000 0.000000 0.000000 0.580700 -12.556800 33.315800 -45.754600 -51.132800 -22.824800 4.673900 20.328400 -20.699900 0.000000 0.000000 0.000000 7.125000 0.000000 -0.000000 20.900100 10.204800 18.151900
18.034507 12.844298 9.889887 18.258128 -81.651973 -56.007023 0.000000 0.000000 0.000000 -7.948379 -12.047835 -19.325512 2.246339 9.361032 26.931533 1.972513 14.667811 25.735593 0.314134 3.602627 9.961319 0.000000 0.000000 0.000000 -1.736069 14.720952 -21.301026 -4.126504 -12.326804 36.898191 2.761362 -27.955623 -8.790592 -6.375901 -14.781823 46.470169 1.156571 1.498970 21.250070 -0.573581 0.893761 15.239763 -1.459514 0.020823 4.858398 11.550015 10.111672 1.476912 -9.745223 14.167237 9.318334 -4.215771 7.064196 4.062710 0.000000 0.000000 0.000000 6.396604 -14.028823 -54.826184 52.479771 -53.947896 28.166996 -1.601057 16.118795 -34.250529 0.000000 0.000000 0.000000 -7.125000 0.000000 0.000000 -39.257077 59.678493 15.500899 0.000000 0.000000 0.000000 0.764293 -12.526027 33.305734 -45.815421 -51.161733 -22.872165 4.286374 20.013925 -20.949764 0.000000 0.000000 0.000000 7.125000 0.000000 0.000000 20.648380 9.961138 18.009049
18.049289 12.859167 9.886787 18.265815 -81.629138 -56.014239 0.000000 0.000000 0.000000 -8.003822 -11.991987 -19.089910 2.173872 9.219109 26.483170 1.979047 14.978840 25.830796 0.355453 3.828579 10.595030 0.000000 0.000000 0.000000 -2.075784 15.521766 -21.126985 -4.179625 -12.395665 37.146538 2.675693 -27.508358 -11.349496 -6.860296 -15.210052 48.338509 1.215478 1.537762 21.256708 -0.553524 0.954730 15.247659 -1.481010 0.056266 4.867808 11.388791 9.959423 1.309076 -9.604025 13.938786 9.395953 -4.156358 6.945809 4.067367 0.000000 0.000000 0.000000 6.328380 -14.063223 -55.000435 52.593742 -53.989468 28.259162 -1.901811 15.870377 -34.668105 0.000000 0.000000 0.000000 -7.125000 0.000000 0.000000 -39.990161 59.932536 16.094504 0.000000 0.000000 0.000000 0.768809 -12.490658 33.108916 -45.853957 -51.180043 -22.902182 3.925240 20.067684 -21.046648 0.000000 0.000000 0.000000 7.125000 0.000000 0.000000 20.425010 9.860809 17.829162
18.076407 12.885660 9.884097 18.077788 -81.700992 -55.740722 0.000000 0.000000 0.000000 -7.920609 -11.954885 -19.249745 2.194379 9.259721 26.611188 1.985234 14.873477 25.848366 0.356910 3.838094 10.621646 0.000000 0.000000 0.000000 -2.518724 16.884236 -20.947147 -4.194384 -12.414669 37.215280 2.616808 -27.339673 -13.783306 -7.224210 -15.517671 49.716884 1.211554 1.545263 21.171248 -0.485364 0.968852 15.216611 -1.406593 0.061962 4.872754 11.270386 9.890907 1.005009 -9.531937 13.830143 9.705973 -4.102986 6.879335 4.186166 0.000000 0.000000 0.000000 6.216324 -14.012708 -54.920767 52.579510 -53.984343 28.247643 -1.785916 16.140990 -34.558099 0.000000 0.000000 0.000000 -7.125000 0.000000 0.000000 -39.760775 59.874779 15.927796 0.000000 0.000000 0.000000 0.692204 -12.459241 33.148219 -45.888903 -51.196612 -22.929376 3.810857 20.123371 -21.020094 0.000000 0.000000 0.000000 7.125000 0.000000 0.000000 20.358627 9.882649 17.752933
18.040182 12.849380 9.887972 17.812412 -81.715711 -55.497531 0.000000 0.000000 0.000000 -7.796417 -12.049948 -19.645163 2.323099 9.507938 27.398333 1.889898 14.980219 25.292833 0.475132 4.408392 12.230564 0.000000 0.000000 0.000000 -1.640951 14.661130 -21.590285 -4.150255 -12.357593 37.009141 2.820742 -28.548494 -8.108926 -6.351132 -14.701588 46.263870 1.134668 1.477153 21.183511 -0.483042 0.864156 15.217084 -1.344242 0.000587 4.861223 11.274370 9.916146 1.206483 -9.613852 13.878641 9.502850 -4.139545 6.907784 4.102428 0.000000 0.000000 0.000000 6.217904 -13.964324 -54.603334 52.591095 -53.988529 28.257063 -2.085797 15.940228 -34.118379 0.000000 0.000000 0.000000 -7.125000 0.000000 0.000000 -39.574977 59.463684 15.441649 0.000000 0.000000 0.000000 0.667080 -12.456565 33.432744 -45.892765 -51.198440 -22.932478 4.147396 20.226379 -20.852385 0.000000 0.000000 0.000000 7.125000 0.000000 0.000000 20.572962 10.049099 17.893830
17.976285 12.783814 9.896348 18.148867 -81.659168 -55.806270 0.000000 0.000000 0.000000 -7.736254 -12.090476 -20.321528 2.507799 9.851019 28.496598 1.809857 14.794861 24.768772 0.535509 4.676992 12.991728 0.000000 0.000000 0.000000 -0.612655 11.746573 -22.471783 -4.069602 -12.252378 36.630859 2.202163 -28.577048 3.547952 -3.419680 -11.143342 33.000784 1.071149 1.440141 21.173328 -0.551897 0.804985 15.218544 -1.372882 -0.031517 4.865567 11.242599 9.920848 1.163439 -9.552094 13.876114 9.514154 -4.113686 6.906337 4.106253 0.000000 0.000000 0.000000 6.269429 -14.004226 -54.428371 52.466497 -53.943086 28.156270 -2.135390 15.801160 -33.806060 0.000000 0.000000 0.000000 -7.125000 0.000000 0.000000 -39.294030 59.209077 15.064710 0.000000 0.000000 0.000000 0.781270 -12.510745 33.522295 -45.782286 -51.146013 -22.846356 4.281015 20.378412 -20.760486 0.000000 0.000000 0.000000 7.125000 0.000000 0.000000 20.660332 10.138720 17.941017
17.959779 12.771305 9.901187 18.000829 -81.707908 -55.605640 0.000000 0.000000 0.000000 -7.647512 -12.050662 -20.690432 2.591748 10.002862 28.986006 1.897133 13.841402 25.136986 0.320467 3.621879 10.017111 0.000000 0.000000 0.000000 -0.343509 11.158042 -22.631408 -4.032110 -12.203041 36.454127 1.833682 -28.089501 6.706312 -2.330166 -9.522281 27.443098 1.250965 1.453861 21.078373 -0.564411 0.853427 15.234830 -1.494382 0.010421 4.938705 11.230199 9.875008 1.039366 -9.440487 13.798205 9.620616 -4.075193 6.867255 4.142178 0.000000 0.000000 0.000000 6.282525 -14.093377 -54.586199 52.394061 -53.916558 28.097688 -1.910835 15.852021 -33.745079 0.000000 0.000000 0.000000 -7.125000 0.000000 0.000000 -39.018167 59.212982 14.941169 0.000000 0.000000 0.000000 0.807915 -12.537126 33.385123 -45.939444 -51.220439 -22.968752 4.625883 20.237720 -20.439165 0.000000 0.000000 0.000000 7.125000 0.000000 0.000000 20.893252 10.448174 18.033374
